<svg width="24" height="24" viewBox="0 0 24 24" fill="none" xmlns="http://www.w3.org/2000/svg">
<path d="M12.36 4C6.58001 4 2.64401 9.857 4.82401 15.21L5.75701 17.498C5.79775 17.5978 5.80516 17.7081 5.77813 17.8124C5.7511 17.9167 5.69108 18.0095 5.60701 18.077L3.63401 19.66C3.55323 19.7248 3.49457 19.8131 3.46613 19.9127C3.43769 20.0122 3.44086 20.1182 3.47522 20.2159C3.50958 20.3136 3.57342 20.3982 3.65793 20.458C3.74244 20.5179 3.84345 20.55 3.94701 20.55H11.767C12.9138 20.5501 14.0494 20.3244 15.1089 19.8856C16.1684 19.4468 17.1312 18.8037 17.9421 17.9928C18.7531 17.182 19.3963 16.2193 19.8352 15.1598C20.2741 14.1003 20.5 12.9648 20.5 11.818C20.5 7.5 17 4 12.682 4H12.36Z" fill="#3A85F6"/>
</svg>
