<svg width="10" height="11" viewBox="0 0 10 11" fill="none" xmlns="http://www.w3.org/2000/svg">
<path d="M3.01786 1.32227C3.13839 1.10938 3.38616 0.976562 3.65625 0.976562H6.34375C6.61384 0.976562 6.86161 1.10938 6.98214 1.32227L7.14286 1.60156H9.28571C9.6808 1.60156 10 1.88086 10 2.22656C10 2.57227 9.6808 2.85156 9.28571 2.85156H0.714286C0.319196 2.85156 0 2.57227 0 2.22656C0 1.88086 0.319196 1.60156 0.714286 1.60156H2.85714L3.01786 1.32227ZM0.714286 3.47656H9.28571V9.72656C9.28571 10.416 8.64509 10.9766 7.85714 10.9766H2.14286C1.35491 10.9766 0.714286 10.416 0.714286 9.72656V3.47656ZM2.85714 4.72656C2.66071 4.72656 2.5 4.86719 2.5 5.03906V9.41406C2.5 9.58594 2.66071 9.72656 2.85714 9.72656C3.05357 9.72656 3.21429 9.58594 3.21429 9.41406V5.03906C3.21429 4.86719 3.05357 4.72656 2.85714 4.72656ZM5 4.72656C4.80357 4.72656 4.64286 4.86719 4.64286 5.03906V9.41406C4.64286 9.58594 4.80357 9.72656 5 9.72656C5.19643 9.72656 5.35714 9.58594 5.35714 9.41406V5.03906C5.35714 4.86719 5.19643 4.72656 5 4.72656ZM7.14286 4.72656C6.94643 4.72656 6.78571 4.86719 6.78571 5.03906V9.41406C6.78571 9.58594 6.94643 9.72656 7.14286 9.72656C7.33929 9.72656 7.5 9.58594 7.5 9.41406V5.03906C7.5 4.86719 7.33929 4.72656 7.14286 4.72656Z" fill="#F24848"/>
</svg>
