<svg width="12" height="13" viewBox="0 0 12 13" fill="none" xmlns="http://www.w3.org/2000/svg">
<g clip-path="url(#clip0_11_34)">
<path d="M5.13646 12.7305C5.37458 13.0273 5.87458 13.0273 6.11271 12.7305L11.1127 6.48047C11.1861 6.38846 11.232 6.27764 11.2452 6.16071C11.2584 6.04379 11.2384 5.92551 11.1874 5.81946C11.1364 5.71341 11.0566 5.62388 10.957 5.56115C10.8575 5.49842 10.7423 5.46504 10.6246 5.46484H8.12458L8.12458 1.08984C8.12458 0.924083 8.05874 0.765111 7.94153 0.647902C7.82432 0.530691 7.66534 0.464844 7.49958 0.464844L3.74958 0.464844C3.58382 0.464844 3.42485 0.530691 3.30764 0.647902C3.19043 0.765111 3.12458 0.924083 3.12458 1.08984V5.46484H0.624584C0.506918 5.46504 0.391693 5.49842 0.292139 5.56115C0.192586 5.62388 0.11274 5.71341 0.0617685 5.81946C0.0107975 5.92551 -0.00923252 6.04379 0.00397968 6.16071C0.0171909 6.27764 0.0631084 6.38846 0.136459 6.48047L5.13646 12.7305ZM3.74958 6.71484H4.37458L4.37458 1.71484H6.87458L6.87458 6.71484L9.32396 6.71484L5.62458 11.3392L1.92521 6.71484H3.74958Z" fill="#3A85F6"/>
</g>
<defs>
<clipPath id="clip0_11_34">
<rect width="11.2491" height="12.4883" fill="white" transform="matrix(-1 0 0 -1 11.2491 12.9531)"/>
</clipPath>
</defs>
</svg>
