<svg width="12" height="14" viewBox="0 0 12 14" fill="none" xmlns="http://www.w3.org/2000/svg">
<g clip-path="url(#clip0_11_30)">
<path d="M6.11269 1.19922C5.87456 0.902344 5.37456 0.902344 5.13644 1.19922L0.136436 7.44922C0.0630856 7.54122 0.0171681 7.65205 0.00395644 7.76897C-0.00925523 7.8859 0.0107744 8.00418 0.0617455 8.11023C0.112717 8.21628 0.192563 8.30581 0.292116 8.36854C0.39167 8.43126 0.506895 8.46464 0.624561 8.46484H3.12456V12.8398C3.12456 13.0056 3.19041 13.1646 3.30762 13.2818C3.42483 13.399 3.5838 13.4648 3.74956 13.4648H7.49956C7.66532 13.4648 7.82429 13.399 7.9415 13.2818C8.05871 13.1646 8.12456 13.0056 8.12456 12.8398V8.46484H10.6246C10.7422 8.46464 10.8575 8.43126 10.957 8.36854C11.0566 8.30581 11.1364 8.21628 11.1874 8.11023C11.2383 8.00418 11.2584 7.8859 11.2452 7.76897C11.232 7.65205 11.186 7.54122 11.1127 7.44922L6.11269 1.19922ZM7.49956 7.21484H6.87456V12.2148H4.37456V7.21484H1.92519L5.62456 2.59047L9.32394 7.21484H7.49956Z" fill="#3A85F6"/>
</g>
<defs>
<clipPath id="clip0_11_30">
<rect width="11.2491" height="12.4883" fill="white" transform="translate(0 0.976562)"/>
</clipPath>
</defs>
</svg>
