<svg width="30" height="30" viewBox="0 0 30 30" fill="none" xmlns="http://www.w3.org/2000/svg">
<rect width="30" height="30" rx="15" fill="white"/>
<path d="M15 15C13.9687 15 13.0859 14.6328 12.3516 13.8984C11.6172 13.1641 11.25 12.2812 11.25 11.25C11.25 10.2188 11.6172 9.33594 12.3516 8.60156C13.0859 7.86719 13.9687 7.5 15 7.5C16.0312 7.5 16.9141 7.86719 17.6484 8.60156C18.3828 9.33594 18.75 10.2188 18.75 11.25C18.75 12.2812 18.3828 13.1641 17.6484 13.8984C16.9141 14.6328 16.0312 15 15 15ZM7.5 22.5V19.875C7.5 19.3438 7.63688 18.8556 7.91063 18.4106C8.18438 17.9656 8.5475 17.6256 9 17.3906C9.96875 16.9062 10.9531 16.5431 11.9531 16.3012C12.9531 16.0594 13.9687 15.9381 15 15.9375C16.0312 15.9369 17.0469 16.0581 18.0469 16.3012C19.0469 16.5444 20.0312 16.9075 21 17.3906C21.4531 17.625 21.8166 17.965 22.0903 18.4106C22.3641 18.8562 22.5006 19.3444 22.5 19.875V22.5H7.5Z" fill="black"/>
</svg>
